<svg xmlns="http://www.w3.org/2000/svg" fill="none" viewBox="0 0 312 69"><path fill="#D9D9D9" d="M40.97.446c22.091 0 40 17.909 40 40a39.805 39.805 0 0 1-6.56 21.95c-.61.928-1.87 1.105-2.825.541a18.92 18.92 0 0 0-9.651-2.63c-.787 0-1.563.048-2.325.141a19.108 19.108 0 0 0-7.03-9.607 18.57 18.57 0 0 0 5.996-11.778l8.493-7.543a.931.931 0 0 0-.43-1.607l-10.423-2.138c-3.207-5.575-9.218-9.329-16.103-9.329-10.256 0-18.57 8.33-18.571 18.605 0 1.274.128 2.519.372 3.721-6.58.032-12.37 3.407-15.764 8.517-1.07 1.61-3.854 1.582-4.265-.306a40.101 40.101 0 0 1-.914-8.537c0-22.091 17.908-40 40-40Z"/><path fill="url(#a)" d="M40.97.446c22.091 0 40 17.909 40 40a39.805 39.805 0 0 1-6.56 21.95c-.61.928-1.87 1.105-2.825.541a18.92 18.92 0 0 0-9.651-2.63c-.787 0-1.563.048-2.325.141a19.108 19.108 0 0 0-7.03-9.607 18.57 18.57 0 0 0 5.996-11.778l8.493-7.543a.931.931 0 0 0-.43-1.607l-10.423-2.138c-3.207-5.575-9.218-9.329-16.103-9.329-10.256 0-18.57 8.33-18.571 18.605 0 1.274.128 2.519.372 3.721-6.58.032-12.37 3.407-15.764 8.517-1.07 1.61-3.854 1.582-4.265-.306a40.101 40.101 0 0 1-.914-8.537c0-22.091 17.908-40 40-40Z"/><path fill="#D9D9D9" d="M45.065 28.834a3.718 3.718 0 0 1 3.714 3.72 3.719 3.719 0 0 1-3.715 3.722 3.719 3.719 0 0 1-3.713-3.721 3.718 3.718 0 0 1 3.714-3.721Z"/><path fill="url(#b)" d="M45.065 28.834a3.718 3.718 0 0 1 3.714 3.72 3.719 3.719 0 0 1-3.715 3.722 3.719 3.719 0 0 1-3.713-3.721 3.718 3.718 0 0 1 3.714-3.721Z"/><path fill="#1B1B18" d="m299.633 26.19 1.798 8.246v22.01h-7.192V26.19h5.394Zm.496 11.656-1.488-.682V31.77l.558-.744c.413-.702 1.074-1.488 1.984-2.356a13.566 13.566 0 0 1 3.162-2.232c1.24-.62 2.5-.93 3.782-.93.62 0 1.198.042 1.736.124.578.083 1.012.228 1.302.434v6.51h-1.984c-2.728 0-4.774.434-6.138 1.302-1.364.827-2.336 2.15-2.914 3.968ZM273.838 57.066c-2.976 0-5.58-.64-7.812-1.922-2.232-1.322-3.989-3.162-5.27-5.518-1.24-2.356-1.86-5.104-1.86-8.246 0-3.182.62-5.952 1.86-8.308 1.281-2.397 3.038-4.257 5.27-5.58 2.232-1.322 4.836-1.984 7.812-1.984 3.017 0 5.642.682 7.874 2.046 2.273 1.323 4.03 3.183 5.27 5.58 1.24 2.356 1.86 5.084 1.86 8.184 0 .372-.021.744-.062 1.116 0 .372-.021.703-.062.992H265.22V37.66h18.166l-1.488 3.286c0-2.852-.661-5.187-1.984-7.006-1.323-1.818-3.327-2.728-6.014-2.728-2.439 0-4.381.765-5.828 2.294-1.405 1.488-2.108 3.472-2.108 5.952v3.286c0 2.563.703 4.609 2.108 6.138 1.447 1.488 3.431 2.232 5.952 2.232 2.273 0 4.03-.475 5.27-1.426a13.445 13.445 0 0 0 3.286-3.534l5.146 3.1c-1.364 2.563-3.183 4.506-5.456 5.828-2.273 1.323-5.084 1.984-8.432 1.984ZM242.175 57.128c-2.728 0-5.104-.64-7.13-1.922-1.984-1.281-3.534-3.1-4.65-5.456-1.116-2.356-1.674-5.146-1.674-8.37 0-3.224.558-6.014 1.674-8.37 1.158-2.397 2.728-4.236 4.712-5.518 2.026-1.322 4.382-1.984 7.068-1.984 2.811 0 5.25.662 7.316 1.984 2.108 1.323 3.741 3.183 4.898 5.58 1.158 2.356 1.736 5.126 1.736 8.308 0 3.1-.578 5.849-1.736 8.246-1.157 2.356-2.79 4.196-4.898 5.518-2.108 1.323-4.546 1.984-7.316 1.984Zm-15.81 11.098V26.19h5.394l1.798 6.634h-.62v16.182h.62v19.22h-7.192Zm14.632-17.546c2.315 0 4.196-.847 5.642-2.542 1.447-1.736 2.17-3.988 2.17-6.758 0-2.81-.723-5.084-2.17-6.82-1.446-1.736-3.327-2.604-5.642-2.604-2.273 0-4.154.868-5.642 2.604-1.446 1.695-2.17 3.948-2.17 6.758 0 2.811.724 5.084 2.17 6.82 1.488 1.695 3.369 2.542 5.642 2.542ZM209.902 26.19l1.798 8.246v22.01h-7.192V26.19h5.394Zm.496 11.656-1.488-.682V31.77l.558-.744c.413-.702 1.075-1.488 1.984-2.356a13.566 13.566 0 0 1 3.162-2.232c1.24-.62 2.501-.93 3.782-.93.62 0 1.199.042 1.736.124.579.083 1.013.228 1.302.434v6.51h-1.984c-2.728 0-4.774.434-6.138 1.302-1.364.827-2.335 2.15-2.914 3.968ZM196.93 56.446h-7.192V26.19h7.192v30.256Zm-8.122-39.68c0-1.322.392-2.397 1.178-3.224.826-.868 1.942-1.302 3.348-1.302 1.322 0 2.397.434 3.224 1.302.826.827 1.24 1.902 1.24 3.224 0 1.323-.414 2.398-1.24 3.224-.827.827-1.902 1.24-3.224 1.24-1.406 0-2.522-.413-3.348-1.24-.786-.826-1.178-1.901-1.178-3.224ZM155.405 56.446V14.224h7.192v42.222h-7.192Zm19.902 0V37.598c0-2.025-.434-3.368-1.302-4.03-.827-.702-1.86-1.054-3.1-1.054-1.158 0-2.356.248-3.596.744a11.427 11.427 0 0 0-3.286 1.922 10.082 10.082 0 0 0-2.418 2.728l-1.426-6.138a20.156 20.156 0 0 1 3.782-3.286 16.408 16.408 0 0 1 4.34-2.17 14.833 14.833 0 0 1 4.836-.806c2.149 0 3.844.352 5.084 1.054 1.24.703 2.17 1.674 2.79 2.914.62 1.199 1.012 2.563 1.178 4.092.206 1.488.31 3.038.31 4.65v18.228h-7.192ZM131.034 57.128c-4.299 0-8.06-.93-11.284-2.79-3.224-1.901-5.725-4.484-7.502-7.75-1.736-3.306-2.604-7.047-2.604-11.222 0-3.141.516-6.034 1.55-8.68 1.074-2.686 2.562-5.001 4.464-6.944 1.942-1.942 4.216-3.451 6.82-4.526 2.604-1.074 5.456-1.612 8.556-1.612 4.836 0 8.804 1.013 11.904 3.038 3.1 2.026 5.58 4.816 7.44 8.37l-6.82 2.294c-1.736-2.521-3.638-4.278-5.704-5.27-2.026-.992-4.299-1.488-6.82-1.488-2.687 0-5.084.64-7.192 1.922-2.108 1.24-3.782 2.976-5.022 5.208-1.24 2.232-1.86 4.795-1.86 7.688 0 2.894.62 5.456 1.86 7.688 1.24 2.232 2.914 3.989 5.022 5.27 2.108 1.24 4.505 1.86 7.192 1.86 2.521 0 4.794-.496 6.82-1.488 2.066-.992 3.968-2.748 5.704-5.27l6.82 2.294c-1.86 3.555-4.34 6.345-7.44 8.37-3.1 2.026-7.068 3.038-11.904 3.038Z"/><defs><linearGradient id="a" x1=".97" x2="72.586" y1=".446" y2="80.006" gradientUnits="userSpaceOnUse"><stop stop-color="#45B8FF"/><stop offset="1" stop-color="#4B2A99"/></linearGradient><linearGradient id="b" x1=".97" x2="72.586" y1=".446" y2="80.006" gradientUnits="userSpaceOnUse"><stop stop-color="#45B8FF"/><stop offset="1" stop-color="#4B2A99"/></linearGradient></defs></svg>